<svg width="24.000000" height="24.000000" viewBox="0 0 24 24" fill="none" xmlns="http://www.w3.org/2000/svg" xmlns:xlink="http://www.w3.org/1999/xlink">
	<desc>
			Created with Pixso.
	</desc>
	<defs>
		<clipPath id="clip4673_68859">
			<rect id="Refresh" width="24.000000" height="24.000000" fill="white" fill-opacity="0"/>
		</clipPath>
	</defs>
	<rect id="Refresh" width="24.000000" height="24.000000" fill="#FFFFFF" fill-opacity="0"/>
	<g clip-path="url(#clip4673_68859)">
		<path id="Ellipse 8" d="M3.3 15.17Q3.03 14.4 2.89 13.58C2.84 13.3 3.02 13.05 3.3 13C3.58 12.96 3.83 13.14 3.88 13.41Q4 14.14 4.24 14.83Q4.5 15.54 4.88 16.21Q5.23 16.83 5.67 17.37Q6.15 17.96 6.74 18.46Q7.36 18.99 8.04 19.38Q8.63 19.71 9.27 19.95C10.23 20.31 11.22 20.5 12.26 20.5Q13.22 20.5 14.14 20.29Q14.87 20.12 15.57 19.83Q16.28 19.53 16.92 19.11Q17.64 18.63 18.27 18.01Q18.9 17.38 19.37 16.65Q19.79 16.02 20.09 15.3Q20.39 14.6 20.55 13.87Q20.76 12.96 20.76 12Q20.76 11.03 20.55 10.12Q20.39 9.39 20.09 8.69Q19.79 7.97 19.37 7.34Q18.9 6.61 18.27 5.98Q17.64 5.36 16.92 4.88Q16.28 4.46 15.57 4.16Q14.87 3.87 14.14 3.7Q13.22 3.5 12.26 3.5Q11.49 3.5 10.74 3.63Q10.3 3.71 9.86 3.84Q9.34 3.99 8.85 4.21Q8.26 4.46 7.72 4.81Q7.25 5.1 6.83 5.45Q6.36 5.84 5.95 6.3Q5.52 6.78 5.17 7.31Q4.88 7.74 4.64 8.22L3.75 7.77Q4.01 7.24 4.34 6.74Q4.73 6.16 5.21 5.63C5.79 4.98 6.45 4.43 7.19 3.96Q7.79 3.58 8.43 3.3Q8.99 3.05 9.57 2.88Q10.08 2.73 10.6 2.64Q11.42 2.5 12.26 2.5Q13.32 2.5 14.34 2.72Q15.16 2.91 15.96 3.24Q16.76 3.58 17.48 4.05Q18.28 4.58 18.98 5.28Q19.67 5.97 20.2 6.78Q20.67 7.49 21.01 8.3Q21.35 9.09 21.53 9.92Q21.76 10.93 21.76 12Q21.76 13.06 21.53 14.07Q21.35 14.9 21.01 15.69Q20.67 16.5 20.2 17.21Q19.67 18.02 18.98 18.71C18.1 19.59 17.09 20.27 15.96 20.75Q15.16 21.08 14.34 21.27Q13.32 21.5 12.26 21.5Q11.28 21.5 10.33 21.3Q9.61 21.15 8.92 20.89C7.88 20.5 6.94 19.94 6.09 19.22Q5.44 18.66 4.9 18.01Q4.41 17.4 4.01 16.71Q3.58 15.96 3.3 15.17Z" fill="#A10D1F" fill-opacity="1.000000" fill-rule="evenodd"/>
		<path id="Vector 28" d="M6.96 8.08L3.79 8.08L3.79 4.5" stroke="#A10D1F" stroke-opacity="1.000000" stroke-width="1.000000" stroke-linejoin="round" stroke-linecap="round"/>
		<path id="Vector 17" d="M18 14L12 14L12 8" stroke="#A10D1F" stroke-opacity="1.000000" stroke-width="1.000000" stroke-linejoin="round" stroke-linecap="round"/>
	</g>
</svg>
