<svg width="16.045410" height="15.356445" viewBox="0 0 16.0454 15.3564" fill="none" xmlns="http://www.w3.org/2000/svg" xmlns:xlink="http://www.w3.org/1999/xlink">
	<desc>
			Created with Pixso.
	</desc>
	<defs/>
	<path id="Star 1" d="M6.11 5.25C6.04 5.46 5.85 5.6 5.63 5.6L1 5.6C0.51 5.6 0.31 6.22 0.7 6.5L4.45 9.23C4.63 9.35 4.7 9.58 4.64 9.79L3.2 14.19C3.05 14.66 3.58 15.04 3.97 14.75L7.72 12.03C7.9 11.9 8.14 11.9 8.31 12.03L12.06 14.75C12.45 15.04 12.98 14.66 12.83 14.19L11.4 9.79C11.33 9.58 11.41 9.35 11.58 9.23L15.33 6.5C15.72 6.22 15.52 5.6 15.04 5.6L10.4 5.6C10.18 5.6 9.99 5.46 9.93 5.25L8.49 0.84C8.34 0.38 7.69 0.38 7.54 0.84L6.11 5.25Z" stroke="#796E65" stroke-opacity="1.000000" stroke-width="1.000000" stroke-linejoin="round"/>
</svg>
